<svg xmlns="http://www.w3.org/2000/svg" xmlns:xlink="http://www.w3.org/1999/xlink" xmlns:lucid="lucid" width="2706" height="4275.44"><g transform="translate(663.5 75.44117647058823)" lucid:page-tab-id="0_0"><path d="M300-66.94a6 6 0 0 1 6-6h630.6a6 6 0 0 1 6 6v390c-107.3-66.13-174.14-66.13-214.63-66.13-64.26 0-149.72 66.13-213.98 66.13-39.86 0-107.33 0-214-66.13z" stroke="#1071e5" stroke-width="5" fill="#6db1ff"/><path d="M335.7-32a6 6 0 0 1 6-6h630.6a6 6 0 0 1 6 6v390c-107.3-66.13-174.14-66.13-214.63-66.13-64.26 0-149.72 66.13-213.98 66.13-39.86 0-107.33 0-214-66.13z" stroke="#1071e5" stroke-width="5" fill="#6db1ff"/><path d="M371.4 2.94a6 6 0 0 1 6-6H1008a6 6 0 0 1 6 6v390C906.7 326.8 839.86 326.8 799.37 326.8c-64.26 0-149.72 66.14-213.98 66.14-39.86 0-107.33 0-214-66.13z" stroke="#1071e5" stroke-width="5" fill="#6db1ff"/><use xlink:href="#a" transform="matrix(1,0,0,1,376.4,1.941176470588232) translate(90.05555555555554 42.66666666666667)"/><use xlink:href="#b" transform="matrix(1,0,0,1,376.4,1.941176470588232) translate(232.12962962962962 42.66666666666667)"/><use xlink:href="#c" transform="matrix(1,0,0,1,376.4,1.941176470588232) translate(288.27777777777777 42.66666666666667)"/><use xlink:href="#d" transform="matrix(1,0,0,1,376.4,1.941176470588232) translate(32.574074074074076 106.66666666666667)"/><use xlink:href="#e" transform="matrix(1,0,0,1,376.4,1.941176470588232) translate(293.01851851851853 106.66666666666667)"/><use xlink:href="#f" transform="matrix(1,0,0,1,376.4,1.941176470588232) translate(396.72222222222223 106.66666666666667)"/><use xlink:href="#g" transform="matrix(1,0,0,1,376.4,1.941176470588232) translate(488.27777777777777 106.66666666666667)"/><use xlink:href="#e" transform="matrix(1,0,0,1,376.4,1.941176470588232) translate(29.388888888888857 170.66666666666669)"/><use xlink:href="#h" transform="matrix(1,0,0,1,376.4,1.941176470588232) translate(133.09259259259258 170.66666666666669)"/><use xlink:href="#i" transform="matrix(1,0,0,1,376.4,1.941176470588232) translate(295.9074074074074 170.66666666666669)"/><use xlink:href="#j" transform="matrix(1,0,0,1,376.4,1.941176470588232) translate(70.9444444444444 234.66666666666669)"/><use xlink:href="#k" transform="matrix(1,0,0,1,376.4,1.941176470588232) translate(283.9814814814814 234.66666666666669)"/><use xlink:href="#l" transform="matrix(1,0,0,1,376.4,1.941176470588232) translate(426.05555555555554 234.66666666666669)"/><use xlink:href="#m" transform="matrix(1,0,0,1,376.4,1.941176470588232) translate(485.31481481481484 234.66666666666669)"/><use xlink:href="#n" transform="matrix(1,0,0,1,376.4,1.941176470588232) translate(214.49999999999997 298.6666666666667)"/><path d="M317 572.47a6 6 0 0 1 6-6h668a6 6 0 0 1 6 6v388a6 6 0 0 1-6 6H323a6 6 0 0 1-6-6z" stroke="#1071e5" stroke-width="5" fill="#6db1ff"/><use xlink:href="#a" transform="matrix(1,0,0,1,329.00000000000006,578.4705882352941) translate(112.07407407407405 101.41666666666667)"/><use xlink:href="#o" transform="matrix(1,0,0,1,329.00000000000006,578.4705882352941) translate(254.14814814814812 101.41666666666667)"/><use xlink:href="#p" transform="matrix(1,0,0,1,329.00000000000006,578.4705882352941) translate(437.55555555555554 101.41666666666667)"/><use xlink:href="#q" transform="matrix(1,0,0,1,329.00000000000006,578.4705882352941) translate(29.111111111111086 165.41666666666669)"/><use xlink:href="#r" transform="matrix(1,0,0,1,329.00000000000006,578.4705882352941) translate(298.5925925925926 165.41666666666669)"/><use xlink:href="#s" transform="matrix(1,0,0,1,329.00000000000006,578.4705882352941) translate(559.0370370370371 165.41666666666669)"/><use xlink:href="#e" transform="matrix(1,0,0,1,329.00000000000006,578.4705882352941) translate(24.66666666666663 229.41666666666669)"/><use xlink:href="#t" transform="matrix(1,0,0,1,329.00000000000006,578.4705882352941) translate(128.37037037037035 229.41666666666669)"/><use xlink:href="#u" transform="matrix(1,0,0,1,329.00000000000006,578.4705882352941) translate(246.74074074074073 229.41666666666669)"/><use xlink:href="#v" transform="matrix(1,0,0,1,329.00000000000006,578.4705882352941) translate(450.7407407407407 229.41666666666669)"/><use xlink:href="#f" transform="matrix(1,0,0,1,329.00000000000006,578.4705882352941) translate(180.22222222222217 293.4166666666667)"/><use xlink:href="#n" transform="matrix(1,0,0,1,329.00000000000006,578.4705882352941) translate(271.7777777777777 293.4166666666667)"/><path d="M657 972.47v135.94" stroke="#3a414a" stroke-width="7" fill="none"/><path d="M660.48 972.56h-6.96v-3.6h6.96z" stroke="#3a414a" stroke-width=".05" fill="#3a414a"/><path d="M657 1126.17l-4.63-14.26h9.26z" stroke="#3a414a" stroke-width="7" fill="#3a414a"/><path d="M918 1140c-28.83 0-52.2 80.6-52.2 180s23.37 180 52.2 180H448.2c-28.83 0-52.2-80.6-52.2-180s23.37-180 52.2-180z" stroke="#6db1ff" stroke-width="5" fill="#c3f7c8"/><use xlink:href="#w" transform="matrix(1,0,0,1,400.999999786133,1145) translate(70.26425925925925 91.88541666666667)"/><use xlink:href="#c" transform="matrix(1,0,0,1,400.999999786133,1145) translate(153.07907407407407 91.88541666666667)"/><use xlink:href="#d" transform="matrix(1,0,0,1,400.999999786133,1145) translate(15.018518518518505 155.88541666666669)"/><use xlink:href="#x" transform="matrix(1,0,0,1,400.999999786133,1145) translate(275.46296296296293 155.88541666666669)"/><use xlink:href="#e" transform="matrix(1,0,0,1,400.999999786133,1145) translate(32.870370370370324 219.88541666666669)"/><use xlink:href="#f" transform="matrix(1,0,0,1,400.999999786133,1145) translate(136.57407407407405 219.88541666666669)"/><use xlink:href="#y" transform="matrix(1,0,0,1,400.999999786133,1145) translate(228.12962962962962 219.88541666666669)"/><use xlink:href="#z" transform="matrix(1,0,0,1,400.999999786133,1145) translate(146.81981481481478 283.8854166666667)"/><use xlink:href="#A" transform="matrix(1,0,0,1,400.999999786133,1145) translate(244.3012962962963 283.8854166666667)"/><path d="M485.67 1678.87a9.8 9.8 0 0 1 8.73-5.34h325.2a9.8 9.8 0 0 1 8.73 5.34l106.94 209.32a11.74 11.74 0 0 1 0 10.67L828.33 2108.2a9.8 9.8 0 0 1-8.73 5.33H494.4a9.8 9.8 0 0 1-8.73-5.34l-106.94-209.33a11.74 11.74 0 0 1 0-10.68z" stroke="#6db1ff" stroke-width="5" fill="#edf5ff"/><use xlink:href="#B" transform="matrix(1,0,0,1,381.00000000039574,1678.5294117647059) translate(84.96796296296293 130.01041666666669)"/><use xlink:href="#C" transform="matrix(1,0,0,1,381.00000000039574,1678.5294117647059) translate(250.74574074074073 130.01041666666669)"/><use xlink:href="#D" transform="matrix(1,0,0,1,381.00000000039574,1678.5294117647059) translate(354.44944444444445 130.01041666666669)"/><use xlink:href="#E" transform="matrix(1,0,0,1,381.00000000039574,1678.5294117647059) translate(104.52351851851851 194.01041666666669)"/><use xlink:href="#F" transform="matrix(1,0,0,1,381.00000000039574,1678.5294117647059) translate(172.37537037037038 194.01041666666669)"/><use xlink:href="#G" transform="matrix(1,0,0,1,381.00000000039574,1678.5294117647059) translate(60.07907407407403 258.0104166666667)"/><use xlink:href="#H" transform="matrix(1,0,0,1,381.00000000039574,1678.5294117647059) translate(278.8938888888889 258.0104166666667)"/><use xlink:href="#I" transform="matrix(1,0,0,1,381.00000000039574,1678.5294117647059) translate(391.1901851851852 258.0104166666667)"/><use xlink:href="#J" transform="matrix(1,0,0,1,381.00000000039574,1678.5294117647059) translate(85.11611111111108 322.0104166666667)"/><use xlink:href="#K" transform="matrix(1,0,0,1,381.00000000039574,1678.5294117647059) translate(159.19018518518516 322.0104166666667)"/><use xlink:href="#L" transform="matrix(1,0,0,1,381.00000000039574,1678.5294117647059) translate(321.85685185185184 322.0104166666667)"/><path d="M660.48 1641.94h-6.96v-23.17h6.96zm0-87.17h-6.96V1506h6.96z" stroke="#3a414a" stroke-width=".05" fill="#3a414a"/><path d="M660.48 1506.1h-6.96v-3.6h6.96z" fill="#3a414a"/><path stroke="#3a414a" stroke-width=".05" fill="#3a414a"/><path d="M657 1659.7l-4.63-14.26h9.26z" fill="#3a414a"/><path d="M657 1670.95l-9.42-29h18.84z" stroke="#3a414a" stroke-width=".05" fill="#3a414a"/><use xlink:href="#M" transform="matrix(1,0,0,1,611.074074074074,1554.7647196323528) translate(0 42.66666666666667)"/><path d="M371.44 1893.53H-194a6 6 0 0 0-6 6v103.18" stroke="#3a414a" stroke-width="7" fill="none"/><path d="M375.2 1890.85l-.2 1.34-.06 1.33.06 1.34.2 1.34.2.8h-4.05v-6.95h4.04z" stroke="#3a414a" stroke-width=".05" fill="#3a414a"/><path d="M-200 2020.48l-4.63-14.27h9.26z" stroke="#3a414a" stroke-width="7" fill="#3a414a"/><use xlink:href="#N" transform="matrix(1,0,0,1,-493.4132299093352,1824.8105604940538) translate(0 42.66666666666667)"/><use xlink:href="#O" transform="matrix(1,0,0,1,-493.4132299093352,1824.8105604940538) translate(47.25925925925927 42.66666666666667)"/><use xlink:href="#P" transform="matrix(1,0,0,1,-493.4132299093352,1824.8105604940538) translate(138.962962962963 42.66666666666667)"/><use xlink:href="#Q" transform="matrix(1,0,0,1,-493.4132299093352,1824.8105604940538) translate(316.29629629629636 42.66666666666667)"/><path d="M946.5 2820.6c-31.98 0-57.9 81.13-57.9 181.2 0 100.1 25.92 181.24 57.9 181.24H425.4c-31.98 0-57.9-81.14-57.9-181.23 0-100.08 25.92-181.2 57.9-181.2z" stroke="#6db1ff" stroke-width="5" fill="#c3f7c8"/><use xlink:href="#R" transform="matrix(1,0,0,1,372.500000213867,2825.5882352941176) translate(43.85685185185185 125.40104166666667)"/><use xlink:href="#S" transform="matrix(1,0,0,1,372.500000213867,2825.5882352941176) translate(182.96796296296296 125.40104166666667)"/><use xlink:href="#T" transform="matrix(1,0,0,1,372.500000213867,2825.5882352941176) translate(283.7087037037037 125.40104166666667)"/><use xlink:href="#U" transform="matrix(1,0,0,1,372.500000213867,2825.5882352941176) translate(4.814814814814781 189.40104166666669)"/><use xlink:href="#V" transform="matrix(1,0,0,1,372.500000213867,2825.5882352941176) translate(93.70370370370367 189.40104166666669)"/><use xlink:href="#l" transform="matrix(1,0,0,1,372.500000213867,2825.5882352941176) translate(197.4074074074074 189.40104166666669)"/><use xlink:href="#U" transform="matrix(1,0,0,1,372.500000213867,2825.5882352941176) translate(256.66666666666663 189.40104166666669)"/><use xlink:href="#W" transform="matrix(1,0,0,1,372.500000213867,2825.5882352941176) translate(345.55555555555554 189.40104166666669)"/><use xlink:href="#X" transform="matrix(1,0,0,1,372.500000213867,2825.5882352941176) translate(91.83833333333332 253.40104166666669)"/><path d="M657 2119.53v165.8" stroke="#3a414a" stroke-width="7" fill="none"/><path d="M660.48 2119.62h-6.96v-3.6h6.96z" stroke="#3a414a" stroke-width=".05" fill="#3a414a"/><path d="M657 2303.1l-4.63-14.28h9.26z" stroke="#3a414a" stroke-width="7" fill="#3a414a"/><path d="M657 2653.06V2789" stroke="#3a414a" stroke-width="7" fill="none"/><path d="M660.48 2653.15h-6.96v-3.6h6.96z" stroke="#3a414a" stroke-width=".05" fill="#3a414a"/><path d="M657 2806.76l-4.63-14.26h9.26z" stroke="#3a414a" stroke-width="7" fill="#3a414a"/><path d="M871.8 1320H1064a6 6 0 0 1 6 6v1669.8a6 6 0 0 1-6 6H920.2" stroke="#3a414a" stroke-width="7" fill="none"/><path d="M871.9 1323.47h-3.53l-.07-3.48.04-3.47h3.55z" stroke="#3a414a" stroke-width=".05" fill="#3a414a"/><path d="M902.43 3001.8l14.26-4.62v9.27z" stroke="#3a414a" stroke-width="7" fill="#3a414a"/><g><use xlink:href="#Y" transform="matrix(1,0,0,1,1078,2117.506616818571) translate(0 42.66666666666667)"/></g><path d="M2040 2820.6c-32.03 0-58 81.13-58 181.2 0 100.1 25.97 181.24 58 181.24h-522c-32.03 0-58-81.14-58-181.23 0-100.08 25.97-181.2 58-181.2z" stroke="#6db1ff" stroke-width="5" fill="#c3f7c8"/><g><use xlink:href="#Z" transform="matrix(1,0,0,1,1465,2825.5882352941176) translate(83.02351851851849 125.40104166666667)"/><use xlink:href="#aa" transform="matrix(1,0,0,1,1465,2825.5882352941176) translate(180.65314814814815 125.40104166666667)"/><use xlink:href="#ab" transform="matrix(1,0,0,1,1465,2825.5882352941176) translate(316.8012962962963 125.40104166666667)"/><use xlink:href="#ac" transform="matrix(1,0,0,1,1465,2825.5882352941176) translate(63.240740740740705 189.40104166666669)"/><use xlink:href="#ad" transform="matrix(1,0,0,1,1465,2825.5882352941176) translate(412.425925925926 189.40104166666669)"/><use xlink:href="#ae" transform="matrix(1,0,0,1,1465,2825.5882352941176) translate(181.005 253.40104166666669)"/></g><path d="M1753.47 2814.6h-6.94v-422.3h6.94zm0-486.3h-6.94V1960.1h6.94z" stroke="#3a414a" stroke-width=".05" fill="#3a414a"/><path d="M1753.47 2818.1h-6.94v-3.6h6.94z" fill="#3a414a"/><path stroke="#3a414a" stroke-width=".05" fill="#3a414a"/><path d="M1763.9 1956.62h-27.8l13.9-42.8z" fill="#3a414a"/><path d="M1768.7 1960.1h-37.4l18.7-57.52zm-27.82-6.95h18.24l-9.12-28.08z" stroke="#3a414a" stroke-width=".05" fill="#3a414a"/><g><use xlink:href="#M" transform="matrix(1,0,0,1,1704.0740740740741,2328.2941046470587) translate(0 42.66666666666667)"/></g><path d="M207.6 3005.3h-57.5v-6.96h57.5zm153.9 0h-83.1v-6.96h83.1z" stroke="#3a414a" stroke-width=".05" fill="#3a414a"/><path d="M365 3001.8l.04 3.5h-3.63v-6.96h3.67z" fill="#3a414a"/><path stroke="#3a414a" stroke-width=".05" fill="#3a414a"/><path d="M146.6 3006.45l-14.27-4.64 14.26-4.62z" fill="#3a414a"/><path d="M150.07 3011.23l-29-9.42 29-9.4z" stroke="#3a414a" stroke-width=".05" fill="#3a414a"/><g><use xlink:href="#af" transform="matrix(1,0,0,1,207.59402070915183,2969.8132352941175) translate(0 42.66666666666667)"/></g><path d="M1591.12 1525.26a10.12 10.12 0 0 1 8.88-5.26h300a10.12 10.12 0 0 1 8.88 5.26l98.24 179.48a10.96 10.96 0 0 1 0 10.52l-98.24 179.48a10.12 10.12 0 0 1-8.88 5.26h-300a10.12 10.12 0 0 1-8.88-5.26l-98.24-179.48a10.96 10.96 0 0 1 0-10.52z" stroke="#1071e5" stroke-width="5" fill="#00c2a8"/><g><use xlink:href="#B" transform="matrix(1,0,0,1,1502,1532) translate(85.11611111111108 126.10416666666667)"/><use xlink:href="#ag" transform="matrix(1,0,0,1,1502,1532) translate(250.89388888888888 126.10416666666667)"/><use xlink:href="#ah" transform="matrix(1,0,0,1,1502,1532) translate(310.15314814814815 126.10416666666667)"/><use xlink:href="#ai" transform="matrix(1,0,0,1,1502,1532) translate(66.07907407407403 190.10416666666669)"/><use xlink:href="#aj" transform="matrix(1,0,0,1,1502,1532) translate(388.5975925925926 190.10416666666669)"/><use xlink:href="#ak" transform="matrix(1,0,0,1,1502,1532) translate(184.37537037037035 254.10416666666669)"/></g><path d="M1750 1514V774.7a6 6 0 0 0-6-6h-715.4" stroke="#3a414a" stroke-width="7" fill="none"/><path d="M1753.47 1517.5h-6.94v-3.6h6.94z" stroke="#3a414a" stroke-width=".05" fill="#3a414a"/><path d="M1010.83 768.7l14.26-4.64v9.27z" stroke="#3a414a" stroke-width="7" fill="#3a414a"/><path d="M-394.82 2767.1a10 10 0 0 1 8.82-5.3h372a10 10 0 0 1 8.82 5.3l122.36 229.42a11.25 11.25 0 0 1 0 10.6L-5.18 3236.5a10 10 0 0 1-8.82 5.3h-372a10 10 0 0 1-8.82-5.3l-122.36-229.4a11.25 11.25 0 0 1 0-10.6z" stroke="#1071e5" stroke-width="5" fill="#00c2a8"/><g><use xlink:href="#al" transform="matrix(1,0,0,1,-515,2766.8132352941175) translate(152.11611111111108 116.10416666666667)"/><use xlink:href="#am" transform="matrix(1,0,0,1,-515,2766.8132352941175) translate(317.8938888888889 116.10416666666667)"/><use xlink:href="#an" transform="matrix(1,0,0,1,-515,2766.8132352941175) translate(377.15314814814815 116.10416666666667)"/><use xlink:href="#ao" transform="matrix(1,0,0,1,-515,2766.8132352941175) translate(180.48648148148146 180.10416666666669)"/><use xlink:href="#p" transform="matrix(1,0,0,1,-515,2766.8132352941175) translate(343.15314814814815 180.10416666666669)"/><use xlink:href="#ap" transform="matrix(1,0,0,1,-515,2766.8132352941175) translate(16.11611111111109 244.10416666666669)"/><use xlink:href="#aq" transform="matrix(1,0,0,1,-515,2766.8132352941175) translate(285.5975925925926 244.10416666666669)"/><use xlink:href="#s" transform="matrix(1,0,0,1,-515,2766.8132352941175) translate(546.0420370370371 244.10416666666669)"/><use xlink:href="#ar" transform="matrix(1,0,0,1,-515,2766.8132352941175) translate(56.04203703703701 308.1041666666667)"/><use xlink:href="#as" transform="matrix(1,0,0,1,-515,2766.8132352941175) translate(198.1161111111111 308.1041666666667)"/><use xlink:href="#at" transform="matrix(1,0,0,1,-515,2766.8132352941175) translate(355.15314814814815 308.1041666666667)"/><use xlink:href="#au" transform="matrix(1,0,0,1,-515,2766.8132352941175) translate(446.70870370370375 308.1041666666667)"/><use xlink:href="#av" transform="matrix(1,0,0,1,-515,2766.8132352941175) translate(169.89388888888885 372.1041666666667)"/><use xlink:href="#aw" transform="matrix(1,0,0,1,-515,2766.8132352941175) translate(241.005 372.1041666666667)"/><use xlink:href="#ax" transform="matrix(1,0,0,1,-515,2766.8132352941175) translate(356.5605555555556 372.1041666666667)"/></g><path d="M-200 2391.2v339.02" stroke="#3a414a" stroke-width="7" fill="none"/><path d="M-196.53 2391.28h-6.94v-1.02l6.94-5.14z" stroke="#3a414a" stroke-width=".05" fill="#3a414a"/><path d="M-200 2748l-4.63-14.28h9.26z" stroke="#3a414a" stroke-width="7" fill="#3a414a"/><path d="M285.4 769.95h-939.26l-.53.04-.38.08-.36.15-.34.2-.3.26-.25.3-.2.33-.16.36-.08.38-.04.53V2995.7l.04.53.1.4.14.36.2.33.26.3.3.25.34.2.36.15.4.1.52.04h129.36v6.95h-129.64l-1.34-.12-1.45-.34-1.38-.58-1.28-.77-1.13-.98-.97-1.13-.78-1.28-.57-1.38-.35-1.44-.1-1.35V772.33l.1-1.34.35-1.46.57-1.38.78-1.26.96-1.14 1.12-.96 1.27-.78 1.37-.57 1.45-.35 1.34-.1H285.4z" stroke="#3a414a" stroke-width=".05" fill="#3a414a"/><path d="M-520.74 2999.14l-.2 1.33-.06 1.34.06 1.36.2 1.33.2.8h-4.05v-6.96h4.06z" fill="#3a414a"/><path stroke="#3a414a" stroke-width=".05" fill="#3a414a"/><path d="M303.17 766.47l-14.26 4.64v-9.26z" fill="#3a414a"/><path d="M314.42 766.47l-29 9.42v-18.85zM1167.6 3495.95H662.13l-.53.05-.38.1-.36.14-.34.2-.3.26-.25.3-.2.34-.16.36-.08.4-.04.5v271.73h-6.96v-272l.1-1.34.36-1.45.57-1.38.78-1.27.96-1.13 1.12-.97 1.27-.77 1.37-.57 1.45-.35 1.34-.1h505.73zm585.88-9.34l-.1 1.36-.36 1.45-.57 1.38-.78 1.27-.96 1.14-1.12.95-1.27.78-1.37.57-1.45.35-1.34.1H1238.4V3489h505.46l.53-.04.38-.1.36-.14.34-.2.3-.26.25-.3.2-.34.16-.36.08-.4.05-.52v-297.3h6.94z" stroke="#3a414a" stroke-width=".05" fill="#3a414a"/><path d="M1753.47 3189.13h-6.94v-3.6h6.94z" fill="#3a414a"/><path stroke="#3a414a" stroke-width=".05" fill="#3a414a"/><path d="M656 3788.1l-4.63-14.27h9.26z" fill="#3a414a"/><path d="M656 3799.34l-9.42-29h18.84z" stroke="#3a414a" stroke-width=".05" fill="#3a414a"/><g><use xlink:href="#af" transform="matrix(1,0,0,1,1167.5925925927904,3460.478113897343) translate(0 42.66666666666667)"/></g><path d="M651.12 3803.5a8.4 8.4 0 0 1 9.76 0l270.24 193a4.3 4.3 0 0 1 0 7l-270.24 193a8.4 8.4 0 0 1-9.76 0l-270.24-193a4.3 4.3 0 0 1 0-7z" stroke="#6db1ff" stroke-width="5" fill="#9391ff"/><g><use xlink:href="#ay" transform="matrix(1,0,0,1,381.00000000039574,3805) translate(113.15314814814812 207.61979166666669)"/><use xlink:href="#az" transform="matrix(1,0,0,1,381.00000000039574,3805) translate(217.89388888888888 207.61979166666669)"/><use xlink:href="#aA" transform="matrix(1,0,0,1,381.00000000039574,3805) translate(309.5975925925926 207.61979166666669)"/></g><path d="M657 380.5V534.9" stroke="#3a414a" stroke-width="7" fill="none"/><path d="M660.48 380.6h-6.96v-2.14l6.96-2.9z" stroke="#3a414a" stroke-width=".05" fill="#3a414a"/><path d="M657 552.64l-4.63-14.26h9.26z" stroke="#3a414a" stroke-width="7" fill="#3a414a"/><path d="M437.5 2352.82a6.87 6.87 0 0 1 5.94-6.8l427.1-58.15a5.24 5.24 0 0 1 5.96 5.2v348a6 6 0 0 1-6 6h-427a6 6 0 0 1-6-6z" stroke="#e81313" stroke-width="5" fill="#fe7070"/><g><use xlink:href="#aB" transform="matrix(1,0,0,1,442.50000021386694,2352.0588235294117) translate(5.907407407407391 124.22916666666667)"/><use xlink:href="#aC" transform="matrix(1,0,0,1,442.50000021386694,2352.0588235294117) translate(236.7222222222222 124.22916666666667)"/><use xlink:href="#aD" transform="matrix(1,0,0,1,442.50000021386694,2352.0588235294117) translate(94.7222222222222 188.22916666666669)"/><use xlink:href="#aE" transform="matrix(1,0,0,1,442.50000021386694,2352.0588235294117) translate(186.42592592592592 188.22916666666669)"/></g><path d="M660.48 3219.4l.04.53.1.4.14.35.2.34.26.3.3.25.34.2.36.16.4.1.52.03h440.05v6.95H662.85l-1.34-.1-1.45-.34-1.38-.57-1.28-.8-1.13-.95-.97-1.14-.78-1.26-.57-1.37-.35-1.45-.1-1.34v-30.64h6.95zm767.93-214.1h-4.76l-.53.03-.38.1-.36.14-.34.2-.3.26-.25.3-.2.34-.16.37-.08.38-.05.53v211.73l-.1 1.34-.35 1.45-.57 1.38-.78 1.26-.96 1.15-1.13.96-1.26.8-1.37.56-1.45.35-1.34.1h-216.6v-6.94h216.32l.53-.04.38-.1.36-.14.34-.2.3-.26.25-.3.2-.34.16-.36.08-.4.05-.52v-211.72l.1-1.35.35-1.45.57-1.37.78-1.26.96-1.13 1.12-.96 1.27-.78 1.37-.57 1.45-.36 1.34-.1h5.05z" stroke="#3a414a" stroke-width=".05" fill="#3a414a"/><path d="M660.48 3189.13h-6.96v-3.6h6.96z" fill="#3a414a"/><path stroke="#3a414a" stroke-width=".05" fill="#3a414a"/><path d="M1446.17 3001.8l-14.26 4.65v-9.27z" fill="#3a414a"/><path d="M1457.42 3001.8l-29 9.43v-18.84z" stroke="#3a414a" stroke-width=".05" fill="#3a414a"/><g><use xlink:href="#M" transform="matrix(1,0,0,1,1103.186506281601,3193.5382352941174) translate(0 42.66666666666667)"/></g><path d="M-397 2000c65.4 69.72 106.77 69.72 131.2 69.72 39.4 0 91.8-69.72 131.2-69.72 24.83 0 65.8 0 131.6 69.72V2420c-65.8-70.14-106.77-70.14-131.6-70.14-39.4 0-91.8 70.14-131.2 70.14-24.43 0-65.8 0-131.2-70.14z" stroke="#cc4e00" stroke-width="5" fill="#fc9432"/><g><use xlink:href="#aF" transform="matrix(1,0,0,1,-385,2012) translate(7.444444444444429 178.79166666666669)"/><use xlink:href="#f" transform="matrix(1,0,0,1,-385,2012) translate(143.74074074074073 178.79166666666669)"/><use xlink:href="#au" transform="matrix(1,0,0,1,-385,2012) translate(235.2962962962963 178.79166666666669)"/><use xlink:href="#aG" transform="matrix(1,0,0,1,-385,2012) translate(93.29629629629628 242.79166666666669)"/></g><defs><path d="M233-177c-1 41-23 64-60 70L243 0h-38l-65-103H63V0H30v-248c88 3 205-21 203 71zM63-129c60-2 137 13 137-47 0-61-80-42-137-45v92" id="aH"/><path d="M100-194c63 0 86 42 84 106H49c0 40 14 67 53 68 26 1 43-12 49-29l28 8c-11 28-37 45-77 45C44 4 14-33 15-96c1-61 26-98 85-98zm52 81c6-60-76-77-97-28-3 7-6 17-6 28h103" id="aI"/><path d="M141-36C126-15 110 5 73 4 37 3 15-17 15-53c-1-64 63-63 125-63 3-35-9-54-41-54-24 1-41 7-42 31l-33-3c5-37 33-52 76-52 45 0 72 20 72 64v82c-1 20 7 32 28 27v20c-31 9-61-2-59-35zM48-53c0 20 12 33 32 33 41-3 63-29 60-74-43 2-92-5-92 41" id="aJ"/><path d="M85-194c31 0 48 13 60 33l-1-100h32l1 261h-30c-2-10 0-23-3-31C134-8 116 4 85 4 32 4 16-35 15-94c0-66 23-100 70-100zm9 24c-40 0-46 34-46 75 0 40 6 74 45 74 42 0 51-32 51-76 0-42-9-74-50-73" id="aK"/><g id="a"><use transform="matrix(0.14814814814814817,0,0,0.14814814814814817,0,0)" xlink:href="#aH"/><use transform="matrix(0.14814814814814817,0,0,0.14814814814814817,38.370370370370374,0)" xlink:href="#aI"/><use transform="matrix(0.14814814814814817,0,0,0.14814814814814817,68,0)" xlink:href="#aJ"/><use transform="matrix(0.14814814814814817,0,0,0.14814814814814817,97.62962962962962,0)" xlink:href="#aK"/></g><path d="M24-231v-30h32v30H24zM24 0v-190h32V0H24" id="aL"/><path d="M117-194c89-4 53 116 60 194h-32v-121c0-31-8-49-39-48C34-167 62-67 57 0H25l-1-190h30c1 10-1 24 2 32 11-22 29-35 61-36" id="aM"/><g id="b"><use transform="matrix(0.14814814814814817,0,0,0.14814814814814817,0,0)" xlink:href="#aL"/><use transform="matrix(0.14814814814814817,0,0,0.14814814814814817,11.703703703703706,0)" xlink:href="#aM"/></g><path d="M205 0l-28-72H64L36 0H1l101-248h38L239 0h-34zm-38-99l-47-123c-12 45-31 82-46 123h93" id="aN"/><path d="M100-194c62-1 85 37 85 99 1 63-27 99-86 99S16-35 15-95c0-66 28-99 85-99zM99-20c44 1 53-31 53-75 0-43-8-75-51-75s-53 32-53 75 10 74 51 75" id="aO"/><path d="M59-47c-2 24 18 29 38 22v24C64 9 27 4 27-40v-127H5v-23h24l9-43h21v43h35v23H59v120" id="aP"/><g id="c"><use transform="matrix(0.14814814814814817,0,0,0.14814814814814817,0,0)" xlink:href="#aN"/><use transform="matrix(0.14814814814814817,0,0,0.14814814814814817,35.55555555555556,0)" xlink:href="#aM"/><use transform="matrix(0.14814814814814817,0,0,0.14814814814814817,65.18518518518519,0)" xlink:href="#aM"/><use transform="matrix(0.14814814814814817,0,0,0.14814814814814817,94.81481481481482,0)" xlink:href="#aO"/><use transform="matrix(0.14814814814814817,0,0,0.14814814814814817,124.44444444444446,0)" xlink:href="#aP"/><use transform="matrix(0.14814814814814817,0,0,0.14814814814814817,139.25925925925927,0)" xlink:href="#aJ"/><use transform="matrix(0.14814814814814817,0,0,0.14814814814814817,168.8888888888889,0)" xlink:href="#aP"/><use transform="matrix(0.14814814814814817,0,0,0.14814814814814817,183.70370370370372,0)" xlink:href="#aL"/><use transform="matrix(0.14814814814814817,0,0,0.14814814814814817,195.40740740740742,0)" xlink:href="#aO"/><use transform="matrix(0.14814814814814817,0,0,0.14814814814814817,225.03703703703707,0)" xlink:href="#aM"/></g><path d="M101-234c-31-9-42 10-38 44h38v23H63V0H32v-167H5v-23h27c-7-52 17-82 69-68v24" id="aQ"/><path d="M114-163C36-179 61-72 57 0H25l-1-190h30c1 12-1 29 2 39 6-27 23-49 58-41v29" id="aR"/><path d="M96-169c-40 0-48 33-48 73s9 75 48 75c24 0 41-14 43-38l32 2c-6 37-31 61-74 61-59 0-76-41-82-99-10-93 101-131 147-64 4 7 5 14 7 22l-32 3c-4-21-16-35-41-35" id="aS"/><g id="d"><use transform="matrix(0.14814814814814817,0,0,0.14814814814814817,0,0)" xlink:href="#aH"/><use transform="matrix(0.14814814814814817,0,0,0.14814814814814817,38.370370370370374,0)" xlink:href="#aI"/><use transform="matrix(0.14814814814814817,0,0,0.14814814814814817,68,0)" xlink:href="#aQ"/><use transform="matrix(0.14814814814814817,0,0,0.14814814814814817,82.81481481481481,0)" xlink:href="#aI"/><use transform="matrix(0.14814814814814817,0,0,0.14814814814814817,112.44444444444444,0)" xlink:href="#aR"/><use transform="matrix(0.14814814814814817,0,0,0.14814814814814817,130.07407407407408,0)" xlink:href="#aI"/><use transform="matrix(0.14814814814814817,0,0,0.14814814814814817,159.7037037037037,0)" xlink:href="#aM"/><use transform="matrix(0.14814814814814817,0,0,0.14814814814814817,189.33333333333331,0)" xlink:href="#aS"/><use transform="matrix(0.14814814814814817,0,0,0.14814814814814817,216,0)" xlink:href="#aI"/></g><g id="e"><use transform="matrix(0.14814814814814817,0,0,0.14814814814814817,0,0)" xlink:href="#aJ"/><use transform="matrix(0.14814814814814817,0,0,0.14814814814814817,29.629629629629633,0)" xlink:href="#aM"/><use transform="matrix(0.14814814814814817,0,0,0.14814814814814817,59.25925925925927,0)" xlink:href="#aK"/></g><path d="M212-179c-10-28-35-45-73-45-59 0-87 40-87 99 0 60 29 101 89 101 43 0 62-24 78-52l27 14C228-24 195 4 139 4 59 4 22-46 18-125c-6-104 99-153 187-111 19 9 31 26 39 46" id="aT"/><path d="M190 0L58-211 59 0H30v-248h39L202-35l-2-213h31V0h-41" id="aU"/><g id="f"><use transform="matrix(0.14814814814814817,0,0,0.14814814814814817,0,0)" xlink:href="#aT"/><use transform="matrix(0.14814814814814817,0,0,0.14814814814814817,38.370370370370374,0)" xlink:href="#aU"/></g><path d="M63-220v92h138v28H63V0H30v-248h175v28H63" id="aV"/><path d="M24 0v-261h32V0H24" id="aW"/><path d="M135-143c-3-34-86-38-87 0 15 53 115 12 119 90S17 21 10-45l28-5c4 36 97 45 98 0-10-56-113-15-118-90-4-57 82-63 122-42 12 7 21 19 24 35" id="aX"/><g id="g"><use transform="matrix(0.14814814814814817,0,0,0.14814814814814817,0,0)" xlink:href="#aV"/><use transform="matrix(0.14814814814814817,0,0,0.14814814814814817,32.44444444444445,0)" xlink:href="#aL"/><use transform="matrix(0.14814814814814817,0,0,0.14814814814814817,44.14814814814815,0)" xlink:href="#aW"/><use transform="matrix(0.14814814814814817,0,0,0.14814814814814817,55.85185185185186,0)" xlink:href="#aI"/><use transform="matrix(0.14814814814814817,0,0,0.14814814814814817,85.4814814814815,0)" xlink:href="#aX"/></g><g id="h"><use transform="matrix(0.14814814814814817,0,0,0.14814814814814817,0,0)" xlink:href="#aS"/><use transform="matrix(0.14814814814814817,0,0,0.14814814814814817,26.66666666666667,0)" xlink:href="#aR"/><use transform="matrix(0.14814814814814817,0,0,0.14814814814814817,44.296296296296305,0)" xlink:href="#aI"/><use transform="matrix(0.14814814814814817,0,0,0.14814814814814817,73.92592592592594,0)" xlink:href="#aJ"/><use transform="matrix(0.14814814814814817,0,0,0.14814814814814817,103.55555555555557,0)" xlink:href="#aP"/><use transform="matrix(0.14814814814814817,0,0,0.14814814814814817,118.37037037037038,0)" xlink:href="#aI"/></g><path d="M106-169C34-169 62-67 57 0H25v-261h32l-1 103c12-21 28-36 61-36 89 0 53 116 60 194h-32v-121c2-32-8-49-39-48" id="aY"/><path d="M210-169c-67 3-38 105-44 169h-31v-121c0-29-5-50-35-48C34-165 62-65 56 0H25l-1-190h30c1 10-1 24 2 32 10-44 99-50 107 0 11-21 27-35 58-36 85-2 47 119 55 194h-31v-121c0-29-5-49-35-48" id="aZ"/><g id="i"><use transform="matrix(0.14814814814814817,0,0,0.14814814814814817,0,0)" xlink:href="#aS"/><use transform="matrix(0.14814814814814817,0,0,0.14814814814814817,26.66666666666667,0)" xlink:href="#aY"/><use transform="matrix(0.14814814814814817,0,0,0.14814814814814817,56.296296296296305,0)" xlink:href="#aR"/><use transform="matrix(0.14814814814814817,0,0,0.14814814814814817,73.92592592592594,0)" xlink:href="#aO"/><use transform="matrix(0.14814814814814817,0,0,0.14814814814814817,103.55555555555557,0)" xlink:href="#aZ"/><use transform="matrix(0.14814814814814817,0,0,0.14814814814814817,147.85185185185188,0)" xlink:href="#aO"/><use transform="matrix(0.14814814814814817,0,0,0.14814814814814817,177.48148148148155,0)" xlink:href="#aX"/><use transform="matrix(0.14814814814814817,0,0,0.14814814814814817,204.1481481481482,0)" xlink:href="#aO"/><use transform="matrix(0.14814814814814817,0,0,0.14814814814814817,233.77777777777783,0)" xlink:href="#aZ"/><use transform="matrix(0.14814814814814817,0,0,0.14814814814814817,278.07407407407413,0)" xlink:href="#aI"/></g><path d="M115-194c55 1 70 41 70 98S169 2 115 4C84 4 66-9 55-30l1 105H24l-1-265h31l2 30c10-21 28-34 59-34zm-8 174c40 0 45-34 45-75s-6-73-45-74c-42 0-51 32-51 76 0 43 10 73 51 73" id="ba"/><g id="j"><use transform="matrix(0.14814814814814817,0,0,0.14814814814814817,0,0)" xlink:href="#ba"/><use transform="matrix(0.14814814814814817,0,0,0.14814814814814817,29.629629629629633,0)" xlink:href="#aO"/><use transform="matrix(0.14814814814814817,0,0,0.14814814814814817,59.25925925925927,0)" xlink:href="#aX"/><use transform="matrix(0.14814814814814817,0,0,0.14814814814814817,85.92592592592594,0)" xlink:href="#aP"/><use transform="matrix(0.14814814814814817,0,0,0.14814814814814817,100.74074074074075,0)" xlink:href="#aL"/><use transform="matrix(0.14814814814814817,0,0,0.14814814814814817,112.44444444444447,0)" xlink:href="#aP"/><use transform="matrix(0.14814814814814817,0,0,0.14814814814814817,127.2592592592593,0)" xlink:href="#aL"/><use transform="matrix(0.14814814814814817,0,0,0.14814814814814817,138.962962962963,0)" xlink:href="#aO"/><use transform="matrix(0.14814814814814817,0,0,0.14814814814814817,168.5925925925926,0)" xlink:href="#aM"/></g><path d="M141 0L90-78 38 0H4l68-98-65-92h35l48 74 47-74h35l-64 92 68 98h-35" id="bb"/><g id="k"><use transform="matrix(0.14814814814814817,0,0,0.14814814814814817,0,0)" xlink:href="#aL"/><use transform="matrix(0.14814814814814817,0,0,0.14814814814814817,11.703703703703706,0)" xlink:href="#aM"/><use transform="matrix(0.14814814814814817,0,0,0.14814814814814817,41.333333333333336,0)" xlink:href="#aK"/><use transform="matrix(0.14814814814814817,0,0,0.14814814814814817,70.96296296296298,0)" xlink:href="#aI"/><use transform="matrix(0.14814814814814817,0,0,0.14814814814814817,100.59259259259261,0)" xlink:href="#bb"/></g><g id="l"><use transform="matrix(0.14814814814814817,0,0,0.14814814814814817,0,0)" xlink:href="#aO"/><use transform="matrix(0.14814814814814817,0,0,0.14814814814814817,29.629629629629633,0)" xlink:href="#aQ"/></g><g id="m"><use transform="matrix(0.14814814814814817,0,0,0.14814814814814817,0,0)" xlink:href="#aT"/><use transform="matrix(0.14814814814814817,0,0,0.14814814814814817,38.370370370370374,0)" xlink:href="#aU"/></g><path d="M206 0h-36l-40-164L89 0H53L-1-190h32L70-26l43-164h34l41 164 42-164h31" id="bc"/><g id="n"><use transform="matrix(0.14814814814814817,0,0,0.14814814814814817,0,0)" xlink:href="#bc"/><use transform="matrix(0.14814814814814817,0,0,0.14814814814814817,38.370370370370374,0)" xlink:href="#aL"/><use transform="matrix(0.14814814814814817,0,0,0.14814814814814817,50.07407407407407,0)" xlink:href="#aM"/><use transform="matrix(0.14814814814814817,0,0,0.14814814814814817,79.70370370370371,0)" xlink:href="#aK"/><use transform="matrix(0.14814814814814817,0,0,0.14814814814814817,109.33333333333334,0)" xlink:href="#aO"/><use transform="matrix(0.14814814814814817,0,0,0.14814814814814817,138.962962962963,0)" xlink:href="#bc"/><use transform="matrix(0.14814814814814817,0,0,0.14814814814814817,177.33333333333334,0)" xlink:href="#aX"/></g><path d="M177-190C167-65 218 103 67 71c-23-6-38-20-44-43l32-5c15 47 100 32 89-28v-30C133-14 115 1 83 1 29 1 15-40 15-95c0-56 16-97 71-98 29-1 48 16 59 35 1-10 0-23 2-32h30zM94-22c36 0 50-32 50-73 0-42-14-75-50-75-39 0-46 34-46 75s6 73 46 73" id="bd"/><g id="o"><use transform="matrix(0.14814814814814817,0,0,0.14814814814814817,0,0)" xlink:href="#aH"/><use transform="matrix(0.14814814814814817,0,0,0.14814814814814817,38.370370370370374,0)" xlink:href="#aI"/><use transform="matrix(0.14814814814814817,0,0,0.14814814814814817,68,0)" xlink:href="#bd"/><use transform="matrix(0.14814814814814817,0,0,0.14814814814814817,97.62962962962962,0)" xlink:href="#aL"/><use transform="matrix(0.14814814814814817,0,0,0.14814814814814817,109.33333333333334,0)" xlink:href="#aO"/><use transform="matrix(0.14814814814814817,0,0,0.14814814814814817,138.962962962963,0)" xlink:href="#aM"/></g><g id="p"><use transform="matrix(0.14814814814814817,0,0,0.14814814814814817,0,0)" xlink:href="#aQ"/><use transform="matrix(0.14814814814814817,0,0,0.14814814814814817,14.814814814814817,0)" xlink:href="#aR"/><use transform="matrix(0.14814814814814817,0,0,0.14814814814814817,32.44444444444445,0)" xlink:href="#aO"/><use transform="matrix(0.14814814814814817,0,0,0.14814814814814817,62.07407407407408,0)" xlink:href="#aZ"/></g><g id="q"><use transform="matrix(0.14814814814814817,0,0,0.14814814814814817,0,0)" xlink:href="#aN"/><use transform="matrix(0.14814814814814817,0,0,0.14814814814814817,35.55555555555556,0)" xlink:href="#aM"/><use transform="matrix(0.14814814814814817,0,0,0.14814814814814817,65.18518518518519,0)" xlink:href="#aM"/><use transform="matrix(0.14814814814814817,0,0,0.14814814814814817,94.81481481481482,0)" xlink:href="#aO"/><use transform="matrix(0.14814814814814817,0,0,0.14814814814814817,124.44444444444446,0)" xlink:href="#aP"/><use transform="matrix(0.14814814814814817,0,0,0.14814814814814817,139.25925925925927,0)" xlink:href="#aJ"/><use transform="matrix(0.14814814814814817,0,0,0.14814814814814817,168.8888888888889,0)" xlink:href="#aP"/><use transform="matrix(0.14814814814814817,0,0,0.14814814814814817,183.70370370370372,0)" xlink:href="#aL"/><use transform="matrix(0.14814814814814817,0,0,0.14814814814814817,195.40740740740742,0)" xlink:href="#aO"/><use transform="matrix(0.14814814814814817,0,0,0.14814814814814817,225.03703703703707,0)" xlink:href="#aM"/></g><g id="r"><use transform="matrix(0.14814814814814817,0,0,0.14814814814814817,0,0)" xlink:href="#aH"/><use transform="matrix(0.14814814814814817,0,0,0.14814814814814817,38.370370370370374,0)" xlink:href="#aI"/><use transform="matrix(0.14814814814814817,0,0,0.14814814814814817,68,0)" xlink:href="#aQ"/><use transform="matrix(0.14814814814814817,0,0,0.14814814814814817,82.81481481481481,0)" xlink:href="#aI"/><use transform="matrix(0.14814814814814817,0,0,0.14814814814814817,112.44444444444444,0)" xlink:href="#aR"/><use transform="matrix(0.14814814814814817,0,0,0.14814814814814817,130.07407407407408,0)" xlink:href="#aI"/><use transform="matrix(0.14814814814814817,0,0,0.14814814814814817,159.7037037037037,0)" xlink:href="#aM"/><use transform="matrix(0.14814814814814817,0,0,0.14814814814814817,189.33333333333331,0)" xlink:href="#aS"/><use transform="matrix(0.14814814814814817,0,0,0.14814814814814817,216,0)" xlink:href="#aI"/></g><g id="s"><use transform="matrix(0.14814814814814817,0,0,0.14814814814814817,0,0)" xlink:href="#aQ"/><use transform="matrix(0.14814814814814817,0,0,0.14814814814814817,14.814814814814817,0)" xlink:href="#aL"/><use transform="matrix(0.14814814814814817,0,0,0.14814814814814817,26.518518518518523,0)" xlink:href="#aW"/><use transform="matrix(0.14814814814814817,0,0,0.14814814814814817,38.22222222222223,0)" xlink:href="#aI"/></g><g id="t"><use transform="matrix(0.14814814814814817,0,0,0.14814814814814817,0,0)" xlink:href="#aX"/><use transform="matrix(0.14814814814814817,0,0,0.14814814814814817,26.66666666666667,0)" xlink:href="#aP"/><use transform="matrix(0.14814814814814817,0,0,0.14814814814814817,41.48148148148149,0)" xlink:href="#aJ"/><use transform="matrix(0.14814814814814817,0,0,0.14814814814814817,71.11111111111111,0)" xlink:href="#aR"/><use transform="matrix(0.14814814814814817,0,0,0.14814814814814817,88.74074074074075,0)" xlink:href="#aP"/></g><g id="u"><use transform="matrix(0.14814814814814817,0,0,0.14814814814814817,0,0)" xlink:href="#aL"/><use transform="matrix(0.14814814814814817,0,0,0.14814814814814817,11.703703703703706,0)" xlink:href="#aP"/><use transform="matrix(0.14814814814814817,0,0,0.14814814814814817,26.518518518518523,0)" xlink:href="#aI"/><use transform="matrix(0.14814814814814817,0,0,0.14814814814814817,56.14814814814815,0)" xlink:href="#aR"/><use transform="matrix(0.14814814814814817,0,0,0.14814814814814817,73.77777777777779,0)" xlink:href="#aJ"/><use transform="matrix(0.14814814814814817,0,0,0.14814814814814817,103.40740740740742,0)" xlink:href="#aP"/><use transform="matrix(0.14814814814814817,0,0,0.14814814814814817,118.22222222222221,0)" xlink:href="#aL"/><use transform="matrix(0.14814814814814817,0,0,0.14814814814814817,129.92592592592592,0)" xlink:href="#aM"/><use transform="matrix(0.14814814814814817,0,0,0.14814814814814817,159.55555555555554,0)" xlink:href="#bd"/></g><path d="M84 4C-5 8 30-112 23-190h32v120c0 31 7 50 39 49 72-2 45-101 50-169h31l1 190h-30c-1-10 1-25-2-33-11 22-28 36-60 37" id="be"/><g id="v"><use transform="matrix(0.14814814814814817,0,0,0.14814814814814817,0,0)" xlink:href="#aP"/><use transform="matrix(0.14814814814814817,0,0,0.14814814814814817,14.814814814814817,0)" xlink:href="#aY"/><use transform="matrix(0.14814814814814817,0,0,0.14814814814814817,44.44444444444445,0)" xlink:href="#aR"/><use transform="matrix(0.14814814814814817,0,0,0.14814814814814817,62.07407407407408,0)" xlink:href="#aO"/><use transform="matrix(0.14814814814814817,0,0,0.14814814814814817,91.70370370370371,0)" xlink:href="#be"/><use transform="matrix(0.14814814814814817,0,0,0.14814814814814817,121.33333333333334,0)" xlink:href="#bd"/><use transform="matrix(0.14814814814814817,0,0,0.14814814814814817,150.962962962963,0)" xlink:href="#aY"/></g><path d="M30-248c118-7 216 8 213 122C240-48 200 0 122 0H30v-248zM63-27c89 8 146-16 146-99s-60-101-146-95v194" id="bf"/><g id="w"><use transform="matrix(0.14814814814814817,0,0,0.14814814814814817,0,0)" xlink:href="#bf"/><use transform="matrix(0.14814814814814817,0,0,0.14814814814814817,38.370370370370374,0)" xlink:href="#aO"/></g><g id="x"><use transform="matrix(0.14814814814814817,0,0,0.14814814814814817,0,0)" xlink:href="#aR"/><use transform="matrix(0.14814814814814817,0,0,0.14814814814814817,17.629629629629633,0)" xlink:href="#aI"/><use transform="matrix(0.14814814814814817,0,0,0.14814814814814817,47.25925925925927,0)" xlink:href="#bd"/><use transform="matrix(0.14814814814814817,0,0,0.14814814814814817,76.8888888888889,0)" xlink:href="#aL"/><use transform="matrix(0.14814814814814817,0,0,0.14814814814814817,88.59259259259261,0)" xlink:href="#aO"/><use transform="matrix(0.14814814814814817,0,0,0.14814814814814817,118.22222222222224,0)" xlink:href="#aM"/><use transform="matrix(0.14814814814814817,0,0,0.14814814814814817,147.85185185185188,0)" xlink:href="#aX"/></g><g id="y"><use transform="matrix(0.14814814814814817,0,0,0.14814814814814817,0,0)" xlink:href="#bc"/><use transform="matrix(0.14814814814814817,0,0,0.14814814814814817,38.370370370370374,0)" xlink:href="#aL"/><use transform="matrix(0.14814814814814817,0,0,0.14814814814814817,50.07407407407407,0)" xlink:href="#aM"/><use transform="matrix(0.14814814814814817,0,0,0.14814814814814817,79.70370370370371,0)" xlink:href="#aK"/><use transform="matrix(0.14814814814814817,0,0,0.14814814814814817,109.33333333333334,0)" xlink:href="#aO"/><use transform="matrix(0.14814814814814817,0,0,0.14814814814814817,138.962962962963,0)" xlink:href="#bc"/><use transform="matrix(0.14814814814814817,0,0,0.14814814814814817,177.33333333333334,0)" xlink:href="#aX"/></g><g id="z"><use transform="matrix(0.14814814814814817,0,0,0.14814814814814817,0,0)" xlink:href="#aW"/><use transform="matrix(0.14814814814814817,0,0,0.14814814814814817,11.703703703703706,0)" xlink:href="#aL"/><use transform="matrix(0.14814814814814817,0,0,0.14814814814814817,23.407407407407412,0)" xlink:href="#aM"/><use transform="matrix(0.14814814814814817,0,0,0.14814814814814817,53.037037037037045,0)" xlink:href="#aI"/></g><path d="M103-251c84 0 111 97 45 133-19 10-37 24-39 52H78c0-63 77-55 77-114 0-30-21-42-52-43-32 0-53 17-56 46l-32-2c7-45 34-72 88-72zM77 0v-35h34V0H77" id="bg"/><g id="A"><use transform="matrix(0.14814814814814817,0,0,0.14814814814814817,0,0)" xlink:href="#be"/><use transform="matrix(0.14814814814814817,0,0,0.14814814814814817,29.629629629629633,0)" xlink:href="#ba"/><use transform="matrix(0.14814814814814817,0,0,0.14814814814814817,59.25925925925927,0)" xlink:href="#bg"/></g><path d="M33 0v-248h34V0H33" id="bh"/><g id="B"><use transform="matrix(0.14814814814814817,0,0,0.14814814814814817,0,0)" xlink:href="#bh"/><use transform="matrix(0.14814814814814817,0,0,0.14814814814814817,14.814814814814817,0)" xlink:href="#aP"/><use transform="matrix(0.14814814814814817,0,0,0.14814814814814817,29.629629629629633,0)" xlink:href="#aI"/><use transform="matrix(0.14814814814814817,0,0,0.14814814814814817,59.25925925925927,0)" xlink:href="#aR"/><use transform="matrix(0.14814814814814817,0,0,0.14814814814814817,76.8888888888889,0)" xlink:href="#aJ"/><use transform="matrix(0.14814814814814817,0,0,0.14814814814814817,106.51851851851853,0)" xlink:href="#aP"/><use transform="matrix(0.14814814814814817,0,0,0.14814814814814817,121.33333333333334,0)" xlink:href="#aI"/></g><g id="C"><use transform="matrix(0.14814814814814817,0,0,0.14814814814814817,0,0)" xlink:href="#aJ"/><use transform="matrix(0.14814814814814817,0,0,0.14814814814814817,29.629629629629633,0)" xlink:href="#aM"/><use transform="matrix(0.14814814814814817,0,0,0.14814814814814817,59.25925925925927,0)" xlink:href="#aK"/></g><path d="M108 0H70L1-190h34L89-25l56-165h34" id="bi"/><g id="D"><use transform="matrix(0.14814814814814817,0,0,0.14814814814814817,0,0)" xlink:href="#aX"/><use transform="matrix(0.14814814814814817,0,0,0.14814814814814817,26.66666666666667,0)" xlink:href="#aJ"/><use transform="matrix(0.14814814814814817,0,0,0.14814814814814817,56.296296296296305,0)" xlink:href="#bi"/><use transform="matrix(0.14814814814814817,0,0,0.14814814814814817,82.96296296296298,0)" xlink:href="#aI"/></g><g id="E"><use transform="matrix(0.14814814814814817,0,0,0.14814814814814817,0,0)" xlink:href="#aJ"/><use transform="matrix(0.14814814814814817,0,0,0.14814814814814817,29.629629629629633,0)" xlink:href="#aW"/><use transform="matrix(0.14814814814814817,0,0,0.14814814814814817,41.333333333333336,0)" xlink:href="#aW"/></g><g id="F"><use transform="matrix(0.14814814814814817,0,0,0.14814814814814817,0,0)" xlink:href="#aO"/><use transform="matrix(0.14814814814814817,0,0,0.14814814814814817,29.629629629629633,0)" xlink:href="#bi"/><use transform="matrix(0.14814814814814817,0,0,0.14814814814814817,56.296296296296305,0)" xlink:href="#aI"/><use transform="matrix(0.14814814814814817,0,0,0.14814814814814817,85.92592592592594,0)" xlink:href="#aR"/><use transform="matrix(0.14814814814814817,0,0,0.14814814814814817,103.55555555555557,0)" xlink:href="#aW"/><use transform="matrix(0.14814814814814817,0,0,0.14814814814814817,115.25925925925928,0)" xlink:href="#aJ"/><use transform="matrix(0.14814814814814817,0,0,0.14814814814814817,144.8888888888889,0)" xlink:href="#ba"/><use transform="matrix(0.14814814814814817,0,0,0.14814814814814817,174.51851851851853,0)" xlink:href="#ba"/><use transform="matrix(0.14814814814814817,0,0,0.14814814814814817,204.14814814814815,0)" xlink:href="#aL"/><use transform="matrix(0.14814814814814817,0,0,0.14814814814814817,215.85185185185185,0)" xlink:href="#aM"/><use transform="matrix(0.14814814814814817,0,0,0.14814814814814817,245.48148148148147,0)" xlink:href="#bd"/></g><g id="G"><use transform="matrix(0.14814814814814817,0,0,0.14814814814814817,0,0)" xlink:href="#bc"/><use transform="matrix(0.14814814814814817,0,0,0.14814814814814817,38.370370370370374,0)" xlink:href="#aL"/><use transform="matrix(0.14814814814814817,0,0,0.14814814814814817,50.07407407407407,0)" xlink:href="#aM"/><use transform="matrix(0.14814814814814817,0,0,0.14814814814814817,79.70370370370371,0)" xlink:href="#aK"/><use transform="matrix(0.14814814814814817,0,0,0.14814814814814817,109.33333333333334,0)" xlink:href="#aO"/><use transform="matrix(0.14814814814814817,0,0,0.14814814814814817,138.962962962963,0)" xlink:href="#bc"/><use transform="matrix(0.14814814814814817,0,0,0.14814814814814817,177.33333333333334,0)" xlink:href="#aX"/></g><g id="H"><use transform="matrix(0.14814814814814817,0,0,0.14814814814814817,0,0)" xlink:href="#be"/><use transform="matrix(0.14814814814814817,0,0,0.14814814814814817,29.629629629629633,0)" xlink:href="#aM"/><use transform="matrix(0.14814814814814817,0,0,0.14814814814814817,59.25925925925927,0)" xlink:href="#aP"/><use transform="matrix(0.14814814814814817,0,0,0.14814814814814817,74.07407407407408,0)" xlink:href="#aL"/><use transform="matrix(0.14814814814814817,0,0,0.14814814814814817,85.77777777777779,0)" xlink:href="#aW"/></g><path d="M179-190L93 31C79 59 56 82 12 73V49c39 6 53-20 64-50L1-190h34L92-34l54-156h33" id="bj"/><g id="I"><use transform="matrix(0.14814814814814817,0,0,0.14814814814814817,0,0)" xlink:href="#aP"/><use transform="matrix(0.14814814814814817,0,0,0.14814814814814817,14.814814814814817,0)" xlink:href="#aY"/><use transform="matrix(0.14814814814814817,0,0,0.14814814814814817,44.44444444444445,0)" xlink:href="#aI"/><use transform="matrix(0.14814814814814817,0,0,0.14814814814814817,74.07407407407408,0)" xlink:href="#bj"/></g><g id="J"><use transform="matrix(0.14814814814814817,0,0,0.14814814814814817,0,0)" xlink:href="#aM"/><use transform="matrix(0.14814814814814817,0,0,0.14814814814814817,29.629629629629633,0)" xlink:href="#aO"/></g><g id="K"><use transform="matrix(0.14814814814814817,0,0,0.14814814814814817,0,0)" xlink:href="#aW"/><use transform="matrix(0.14814814814814817,0,0,0.14814814814814817,11.703703703703706,0)" xlink:href="#aO"/><use transform="matrix(0.14814814814814817,0,0,0.14814814814814817,41.333333333333336,0)" xlink:href="#aM"/><use transform="matrix(0.14814814814814817,0,0,0.14814814814814817,70.96296296296298,0)" xlink:href="#bd"/><use transform="matrix(0.14814814814814817,0,0,0.14814814814814817,100.59259259259261,0)" xlink:href="#aI"/><use transform="matrix(0.14814814814814817,0,0,0.14814814814814817,130.22222222222223,0)" xlink:href="#aR"/></g><g id="L"><use transform="matrix(0.14814814814814817,0,0,0.14814814814814817,0,0)" xlink:href="#aZ"/><use transform="matrix(0.14814814814814817,0,0,0.14814814814814817,44.296296296296305,0)" xlink:href="#aJ"/><use transform="matrix(0.14814814814814817,0,0,0.14814814814814817,73.92592592592594,0)" xlink:href="#aP"/><use transform="matrix(0.14814814814814817,0,0,0.14814814814814817,88.74074074074078,0)" xlink:href="#aS"/><use transform="matrix(0.14814814814814817,0,0,0.14814814814814817,115.40740740740743,0)" xlink:href="#aY"/></g><path fill="#333" d="M146-102V0H94v-102L6-248h54l60 105 60-105h54" id="bk"/><path fill="#333" d="M185-48c-13 30-37 53-82 52C43 2 14-33 14-96s30-98 90-98c62 0 83 45 84 108H66c0 31 8 55 39 56 18 0 30-7 34-22zm-45-69c5-46-57-63-70-21-2 6-4 13-4 21h74" id="bl"/><path fill="#333" d="M137-138c1-29-70-34-71-4 15 46 118 7 119 86 1 83-164 76-172 9l43-7c4 19 20 25 44 25 33 8 57-30 24-41C81-84 22-81 20-136c-2-80 154-74 161-7" id="bm"/><g id="M"><use transform="matrix(0.14814814814814817,0,0,0.14814814814814817,0,0)" xlink:href="#bk"/><use transform="matrix(0.14814814814814817,0,0,0.14814814814814817,32.592592592592595,0)" xlink:href="#bl"/><use transform="matrix(0.14814814814814817,0,0,0.14814814814814817,62.22222222222223,0)" xlink:href="#bm"/></g><path fill="#333" d="M24 0v-248h52V0H24" id="bn"/><path fill="#333" d="M121-226c-27-7-43 5-38 36h38v33H83V0H34v-157H6v-33h28c-9-59 32-81 87-68v32" id="bo"/><g id="N"><use transform="matrix(0.14814814814814817,0,0,0.14814814814814817,0,0)" xlink:href="#bn"/><use transform="matrix(0.14814814814814817,0,0,0.14814814814814817,14.814814814814817,0)" xlink:href="#bo"/></g><path fill="#333" d="M23 0v-37h61v-169l-59 37v-38l62-41h46v211h57V0H23" id="bp"/><path fill="#333" d="M115-3C79 11 28 4 28-45v-112H4v-33h27l15-45h31v45h36v33H77v99c-1 23 16 31 38 25v30" id="bq"/><g id="O"><use transform="matrix(0.14814814814814817,0,0,0.14814814814814817,0,0)" xlink:href="#bp"/><use transform="matrix(0.14814814814814817,0,0,0.14814814814814817,29.629629629629633,0)" xlink:href="#bm"/><use transform="matrix(0.14814814814814817,0,0,0.14814814814814817,59.25925925925927,0)" xlink:href="#bq"/></g><path fill="#333" d="M135-150c-39-12-60 13-60 57V0H25l-1-190h47c2 13-1 29 3 40 6-28 27-53 61-41v41" id="br"/><path fill="#333" d="M195-6C206 82 75 100 31 46c-4-6-6-13-8-21l49-6c3 16 16 24 34 25 40 0 42-37 40-79-11 22-30 35-61 35-53 0-70-43-70-97 0-56 18-96 73-97 30 0 46 14 59 34l2-30h47zm-90-29c32 0 41-27 41-63 0-35-9-62-40-62-32 0-39 29-40 63 0 36 9 62 39 62" id="bs"/><path fill="#333" d="M25-224v-37h50v37H25zM25 0v-190h50V0H25" id="bt"/><path fill="#333" d="M110-194c64 0 96 36 96 99 0 64-35 99-97 99-61 0-95-36-95-99 0-62 34-99 96-99zm-1 164c35 0 45-28 45-65 0-40-10-65-43-65-34 0-45 26-45 65 0 36 10 65 43 65" id="bu"/><path fill="#333" d="M135-194c87-1 58 113 63 194h-50c-7-57 23-157-34-157-59 0-34 97-39 157H25l-1-190h47c2 12-1 28 3 38 12-26 28-41 61-42" id="bv"/><g id="P"><use transform="matrix(0.14814814814814817,0,0,0.14814814814814817,0,0)" xlink:href="#br"/><use transform="matrix(0.14814814814814817,0,0,0.14814814814814817,20.740740740740744,0)" xlink:href="#bl"/><use transform="matrix(0.14814814814814817,0,0,0.14814814814814817,50.370370370370374,0)" xlink:href="#bs"/><use transform="matrix(0.14814814814814817,0,0,0.14814814814814817,82.81481481481484,0)" xlink:href="#bt"/><use transform="matrix(0.14814814814814817,0,0,0.14814814814814817,97.62962962962965,0)" xlink:href="#bu"/><use transform="matrix(0.14814814814814817,0,0,0.14814814814814817,130.0740740740741,0)" xlink:href="#bv"/></g><path fill="#333" d="M220-157c-53 9-28 100-34 157h-49v-107c1-27-5-49-29-50C55-147 81-57 75 0H25l-1-190h47c2 12-1 28 3 38 10-53 101-56 108 0 13-22 24-43 59-42 82 1 51 116 57 194h-49v-107c-1-25-5-48-29-50" id="bw"/><path fill="#333" d="M133-34C117-15 103 5 69 4 32 3 11-16 11-54c-1-60 55-63 116-61 1-26-3-47-28-47-18 1-26 9-28 27l-52-2c7-38 36-58 82-57s74 22 75 68l1 82c-1 14 12 18 25 15v27c-30 8-71 5-69-32zm-48 3c29 0 43-24 42-57-32 0-66-3-65 30 0 17 8 27 23 27" id="bx"/><path fill="#333" d="M190-63c-7 42-38 67-86 67-59 0-84-38-90-98-12-110 154-137 174-36l-49 2c-2-19-15-32-35-32-30 0-35 28-38 64-6 74 65 87 74 30" id="by"/><path fill="#333" d="M114-157C55-157 80-60 75 0H25v-261h50l-1 109c12-26 28-41 61-42 86-1 58 113 63 194h-50c-7-57 23-157-34-157" id="bz"/><g id="Q"><use transform="matrix(0.14814814814814817,0,0,0.14814814814814817,0,0)" xlink:href="#bw"/><use transform="matrix(0.14814814814814817,0,0,0.14814814814814817,47.40740740740741,0)" xlink:href="#bx"/><use transform="matrix(0.14814814814814817,0,0,0.14814814814814817,77.03703703703702,0)" xlink:href="#bq"/><use transform="matrix(0.14814814814814817,0,0,0.14814814814814817,94.66666666666669,0)" xlink:href="#by"/><use transform="matrix(0.14814814814814817,0,0,0.14814814814814817,124.29629629629632,0)" xlink:href="#bz"/></g><path d="M197 0v-115H63V0H30v-248h33v105h134v-105h34V0h-34" id="bA"/><g id="R"><use transform="matrix(0.14814814814814817,0,0,0.14814814814814817,0,0)" xlink:href="#bA"/><use transform="matrix(0.14814814814814817,0,0,0.14814814814814817,38.370370370370374,0)" xlink:href="#aJ"/><use transform="matrix(0.14814814814814817,0,0,0.14814814814814817,68,0)" xlink:href="#bi"/><use transform="matrix(0.14814814814814817,0,0,0.14814814814814817,94.66666666666669,0)" xlink:href="#aI"/></g><g id="S"><use transform="matrix(0.14814814814814817,0,0,0.14814814814814817,0,0)" xlink:href="#bj"/><use transform="matrix(0.14814814814814817,0,0,0.14814814814814817,26.66666666666667,0)" xlink:href="#aO"/><use transform="matrix(0.14814814814814817,0,0,0.14814814814814817,56.296296296296305,0)" xlink:href="#be"/></g><g id="T"><use transform="matrix(0.14814814814814817,0,0,0.14814814814814817,0,0)" xlink:href="#aR"/><use transform="matrix(0.14814814814814817,0,0,0.14814814814814817,17.629629629629633,0)" xlink:href="#aI"/><use transform="matrix(0.14814814814814817,0,0,0.14814814814814817,47.25925925925927,0)" xlink:href="#aJ"/><use transform="matrix(0.14814814814814817,0,0,0.14814814814814817,76.8888888888889,0)" xlink:href="#aS"/><use transform="matrix(0.14814814814814817,0,0,0.14814814814814817,103.55555555555557,0)" xlink:href="#aY"/><use transform="matrix(0.14814814814814817,0,0,0.14814814814814817,133.18518518518522,0)" xlink:href="#aI"/><use transform="matrix(0.14814814814814817,0,0,0.14814814814814817,162.81481481481484,0)" xlink:href="#aK"/></g><g id="U"><use transform="matrix(0.14814814814814817,0,0,0.14814814814814817,0,0)" xlink:href="#aP"/><use transform="matrix(0.14814814814814817,0,0,0.14814814814814817,14.814814814814817,0)" xlink:href="#aY"/><use transform="matrix(0.14814814814814817,0,0,0.14814814814814817,44.44444444444445,0)" xlink:href="#aI"/></g><g id="V"><use transform="matrix(0.14814814814814817,0,0,0.14814814814814817,0,0)" xlink:href="#aI"/><use transform="matrix(0.14814814814814817,0,0,0.14814814814814817,29.629629629629633,0)" xlink:href="#aM"/><use transform="matrix(0.14814814814814817,0,0,0.14814814814814817,59.25925925925927,0)" xlink:href="#aK"/></g><g id="W"><use transform="matrix(0.14814814814814817,0,0,0.14814814814814817,0,0)" xlink:href="#aS"/><use transform="matrix(0.14814814814814817,0,0,0.14814814814814817,26.66666666666667,0)" xlink:href="#be"/><use transform="matrix(0.14814814814814817,0,0,0.14814814814814817,56.296296296296305,0)" xlink:href="#aR"/><use transform="matrix(0.14814814814814817,0,0,0.14814814814814817,73.92592592592594,0)" xlink:href="#aR"/><use transform="matrix(0.14814814814814817,0,0,0.14814814814814817,91.55555555555557,0)" xlink:href="#aI"/><use transform="matrix(0.14814814814814817,0,0,0.14814814814814817,121.1851851851852,0)" xlink:href="#aM"/><use transform="matrix(0.14814814814814817,0,0,0.14814814814814817,150.81481481481484,0)" xlink:href="#aP"/></g><g id="X"><use transform="matrix(0.14814814814814817,0,0,0.14814814814814817,0,0)" xlink:href="#aS"/><use transform="matrix(0.14814814814814817,0,0,0.14814814814814817,26.66666666666667,0)" xlink:href="#aY"/><use transform="matrix(0.14814814814814817,0,0,0.14814814814814817,56.296296296296305,0)" xlink:href="#aR"/><use transform="matrix(0.14814814814814817,0,0,0.14814814814814817,73.92592592592594,0)" xlink:href="#aO"/><use transform="matrix(0.14814814814814817,0,0,0.14814814814814817,103.55555555555557,0)" xlink:href="#aZ"/><use transform="matrix(0.14814814814814817,0,0,0.14814814814814817,147.85185185185188,0)" xlink:href="#aO"/><use transform="matrix(0.14814814814814817,0,0,0.14814814814814817,177.48148148148155,0)" xlink:href="#aX"/><use transform="matrix(0.14814814814814817,0,0,0.14814814814814817,204.1481481481482,0)" xlink:href="#aO"/><use transform="matrix(0.14814814814814817,0,0,0.14814814814814817,233.77777777777783,0)" xlink:href="#aZ"/><use transform="matrix(0.14814814814814817,0,0,0.14814814814814817,278.07407407407413,0)" xlink:href="#aI"/><use transform="matrix(0.14814814814814817,0,0,0.14814814814814817,307.70370370370375,0)" xlink:href="#bg"/></g><path fill="#333" d="M175 0L67-191c6 58 2 128 3 191H24v-248h59L193-55c-6-58-2-129-3-193h46V0h-61" id="bB"/><g id="Y"><use transform="matrix(0.14814814814814817,0,0,0.14814814814814817,0,0)" xlink:href="#bB"/><use transform="matrix(0.14814814814814817,0,0,0.14814814814814817,38.370370370370374,0)" xlink:href="#bu"/></g><g id="Z"><use transform="matrix(0.14814814814814817,0,0,0.14814814814814817,0,0)" xlink:href="#aN"/><use transform="matrix(0.14814814814814817,0,0,0.14814814814814817,35.55555555555556,0)" xlink:href="#aR"/><use transform="matrix(0.14814814814814817,0,0,0.14814814814814817,53.18518518518519,0)" xlink:href="#aI"/></g><g id="aa"><use transform="matrix(0.14814814814814817,0,0,0.14814814814814817,0,0)" xlink:href="#aP"/><use transform="matrix(0.14814814814814817,0,0,0.14814814814814817,14.814814814814817,0)" xlink:href="#aY"/><use transform="matrix(0.14814814814814817,0,0,0.14814814814814817,44.44444444444445,0)" xlink:href="#aI"/><use transform="matrix(0.14814814814814817,0,0,0.14814814814814817,74.07407407407408,0)" xlink:href="#aR"/><use transform="matrix(0.14814814814814817,0,0,0.14814814814814817,91.70370370370371,0)" xlink:href="#aI"/></g><g id="ab"><use transform="matrix(0.14814814814814817,0,0,0.14814814814814817,0,0)" xlink:href="#aZ"/><use transform="matrix(0.14814814814814817,0,0,0.14814814814814817,44.296296296296305,0)" xlink:href="#aO"/><use transform="matrix(0.14814814814814817,0,0,0.14814814814814817,73.92592592592594,0)" xlink:href="#aR"/><use transform="matrix(0.14814814814814817,0,0,0.14814814814814817,91.55555555555557,0)" xlink:href="#aI"/></g><g id="ac"><use transform="matrix(0.14814814814814817,0,0,0.14814814814814817,0,0)" xlink:href="#aS"/><use transform="matrix(0.14814814814814817,0,0,0.14814814814814817,26.66666666666667,0)" xlink:href="#aY"/><use transform="matrix(0.14814814814814817,0,0,0.14814814814814817,56.296296296296305,0)" xlink:href="#aR"/><use transform="matrix(0.14814814814814817,0,0,0.14814814814814817,73.92592592592594,0)" xlink:href="#aO"/><use transform="matrix(0.14814814814814817,0,0,0.14814814814814817,103.55555555555557,0)" xlink:href="#aZ"/><use transform="matrix(0.14814814814814817,0,0,0.14814814814814817,147.85185185185188,0)" xlink:href="#aO"/><use transform="matrix(0.14814814814814817,0,0,0.14814814814814817,177.48148148148155,0)" xlink:href="#aX"/><use transform="matrix(0.14814814814814817,0,0,0.14814814814814817,204.1481481481482,0)" xlink:href="#aO"/><use transform="matrix(0.14814814814814817,0,0,0.14814814814814817,233.77777777777783,0)" xlink:href="#aZ"/><use transform="matrix(0.14814814814814817,0,0,0.14814814814814817,278.07407407407413,0)" xlink:href="#aI"/><use transform="matrix(0.14814814814814817,0,0,0.14814814814814817,307.70370370370375,0)" xlink:href="#aX"/></g><g id="ad"><use transform="matrix(0.14814814814814817,0,0,0.14814814814814817,0,0)" xlink:href="#aL"/><use transform="matrix(0.14814814814814817,0,0,0.14814814814814817,11.703703703703706,0)" xlink:href="#aM"/></g><g id="ae"><use transform="matrix(0.14814814814814817,0,0,0.14814814814814817,0,0)" xlink:href="#bh"/><use transform="matrix(0.14814814814814817,0,0,0.14814814814814817,14.814814814814817,0)" xlink:href="#aM"/><use transform="matrix(0.14814814814814817,0,0,0.14814814814814817,44.44444444444445,0)" xlink:href="#aK"/><use transform="matrix(0.14814814814814817,0,0,0.14814814814814817,74.07407407407408,0)" xlink:href="#aI"/><use transform="matrix(0.14814814814814817,0,0,0.14814814814814817,103.70370370370372,0)" xlink:href="#bb"/><use transform="matrix(0.14814814814814817,0,0,0.14814814814814817,130.37037037037038,0)" xlink:href="#bg"/></g><g id="af"><use transform="matrix(0.14814814814814817,0,0,0.14814814814814817,0,0)" xlink:href="#bB"/><use transform="matrix(0.14814814814814817,0,0,0.14814814814814817,38.370370370370374,0)" xlink:href="#bu"/></g><g id="ag"><use transform="matrix(0.14814814814814817,0,0,0.14814814814814817,0,0)" xlink:href="#aP"/><use transform="matrix(0.14814814814814817,0,0,0.14814814814814817,14.814814814814817,0)" xlink:href="#aO"/></g><g id="ah"><use transform="matrix(0.14814814814814817,0,0,0.14814814814814817,0,0)" xlink:href="#aM"/><use transform="matrix(0.14814814814814817,0,0,0.14814814814814817,29.629629629629633,0)" xlink:href="#aI"/><use transform="matrix(0.14814814814814817,0,0,0.14814814814814817,59.25925925925927,0)" xlink:href="#bb"/><use transform="matrix(0.14814814814814817,0,0,0.14814814814814817,85.92592592592594,0)" xlink:href="#aP"/></g><g id="ai"><use transform="matrix(0.14814814814814817,0,0,0.14814814814814817,0,0)" xlink:href="#aS"/><use transform="matrix(0.14814814814814817,0,0,0.14814814814814817,26.66666666666667,0)" xlink:href="#aY"/><use transform="matrix(0.14814814814814817,0,0,0.14814814814814817,56.296296296296305,0)" xlink:href="#aR"/><use transform="matrix(0.14814814814814817,0,0,0.14814814814814817,73.92592592592594,0)" xlink:href="#aO"/><use transform="matrix(0.14814814814814817,0,0,0.14814814814814817,103.55555555555557,0)" xlink:href="#aZ"/><use transform="matrix(0.14814814814814817,0,0,0.14814814814814817,147.85185185185188,0)" xlink:href="#aO"/><use transform="matrix(0.14814814814814817,0,0,0.14814814814814817,177.48148148148155,0)" xlink:href="#aX"/><use transform="matrix(0.14814814814814817,0,0,0.14814814814814817,204.1481481481482,0)" xlink:href="#aO"/><use transform="matrix(0.14814814814814817,0,0,0.14814814814814817,233.77777777777783,0)" xlink:href="#aZ"/><use transform="matrix(0.14814814814814817,0,0,0.14814814814814817,278.07407407407413,0)" xlink:href="#aI"/></g><g id="aj"><use transform="matrix(0.14814814814814817,0,0,0.14814814814814817,0,0)" xlink:href="#aL"/><use transform="matrix(0.14814814814814817,0,0,0.14814814814814817,11.703703703703706,0)" xlink:href="#aM"/></g><g id="ak"><use transform="matrix(0.14814814814814817,0,0,0.14814814814814817,0,0)" xlink:href="#aL"/><use transform="matrix(0.14814814814814817,0,0,0.14814814814814817,11.703703703703706,0)" xlink:href="#aM"/><use transform="matrix(0.14814814814814817,0,0,0.14814814814814817,41.333333333333336,0)" xlink:href="#aK"/><use transform="matrix(0.14814814814814817,0,0,0.14814814814814817,70.96296296296298,0)" xlink:href="#aI"/><use transform="matrix(0.14814814814814817,0,0,0.14814814814814817,100.59259259259261,0)" xlink:href="#bb"/></g><g id="al"><use transform="matrix(0.14814814814814817,0,0,0.14814814814814817,0,0)" xlink:href="#bh"/><use transform="matrix(0.14814814814814817,0,0,0.14814814814814817,14.814814814814817,0)" xlink:href="#aP"/><use transform="matrix(0.14814814814814817,0,0,0.14814814814814817,29.629629629629633,0)" xlink:href="#aI"/><use transform="matrix(0.14814814814814817,0,0,0.14814814814814817,59.25925925925927,0)" xlink:href="#aR"/><use transform="matrix(0.14814814814814817,0,0,0.14814814814814817,76.8888888888889,0)" xlink:href="#aJ"/><use transform="matrix(0.14814814814814817,0,0,0.14814814814814817,106.51851851851853,0)" xlink:href="#aP"/><use transform="matrix(0.14814814814814817,0,0,0.14814814814814817,121.33333333333334,0)" xlink:href="#aI"/></g><g id="am"><use transform="matrix(0.14814814814814817,0,0,0.14814814814814817,0,0)" xlink:href="#aP"/><use transform="matrix(0.14814814814814817,0,0,0.14814814814814817,14.814814814814817,0)" xlink:href="#aO"/></g><g id="an"><use transform="matrix(0.14814814814814817,0,0,0.14814814814814817,0,0)" xlink:href="#aM"/><use transform="matrix(0.14814814814814817,0,0,0.14814814814814817,29.629629629629633,0)" xlink:href="#aI"/><use transform="matrix(0.14814814814814817,0,0,0.14814814814814817,59.25925925925927,0)" xlink:href="#bb"/><use transform="matrix(0.14814814814814817,0,0,0.14814814814814817,85.92592592592594,0)" xlink:href="#aP"/></g><g id="ao"><use transform="matrix(0.14814814814814817,0,0,0.14814814814814817,0,0)" xlink:href="#aR"/><use transform="matrix(0.14814814814814817,0,0,0.14814814814814817,17.629629629629633,0)" xlink:href="#aI"/><use transform="matrix(0.14814814814814817,0,0,0.14814814814814817,47.25925925925927,0)" xlink:href="#bd"/><use transform="matrix(0.14814814814814817,0,0,0.14814814814814817,76.8888888888889,0)" xlink:href="#aL"/><use transform="matrix(0.14814814814814817,0,0,0.14814814814814817,88.59259259259261,0)" xlink:href="#aO"/><use transform="matrix(0.14814814814814817,0,0,0.14814814814814817,118.22222222222224,0)" xlink:href="#aM"/></g><g id="ap"><use transform="matrix(0.14814814814814817,0,0,0.14814814814814817,0,0)" xlink:href="#aN"/><use transform="matrix(0.14814814814814817,0,0,0.14814814814814817,35.55555555555556,0)" xlink:href="#aM"/><use transform="matrix(0.14814814814814817,0,0,0.14814814814814817,65.18518518518519,0)" xlink:href="#aM"/><use transform="matrix(0.14814814814814817,0,0,0.14814814814814817,94.81481481481482,0)" xlink:href="#aO"/><use transform="matrix(0.14814814814814817,0,0,0.14814814814814817,124.44444444444446,0)" xlink:href="#aP"/><use transform="matrix(0.14814814814814817,0,0,0.14814814814814817,139.25925925925927,0)" xlink:href="#aJ"/><use transform="matrix(0.14814814814814817,0,0,0.14814814814814817,168.8888888888889,0)" xlink:href="#aP"/><use transform="matrix(0.14814814814814817,0,0,0.14814814814814817,183.70370370370372,0)" xlink:href="#aL"/><use transform="matrix(0.14814814814814817,0,0,0.14814814814814817,195.40740740740742,0)" xlink:href="#aO"/><use transform="matrix(0.14814814814814817,0,0,0.14814814814814817,225.03703703703707,0)" xlink:href="#aM"/></g><g id="aq"><use transform="matrix(0.14814814814814817,0,0,0.14814814814814817,0,0)" xlink:href="#aH"/><use transform="matrix(0.14814814814814817,0,0,0.14814814814814817,38.370370370370374,0)" xlink:href="#aI"/><use transform="matrix(0.14814814814814817,0,0,0.14814814814814817,68,0)" xlink:href="#aQ"/><use transform="matrix(0.14814814814814817,0,0,0.14814814814814817,82.81481481481481,0)" xlink:href="#aI"/><use transform="matrix(0.14814814814814817,0,0,0.14814814814814817,112.44444444444444,0)" xlink:href="#aR"/><use transform="matrix(0.14814814814814817,0,0,0.14814814814814817,130.07407407407408,0)" xlink:href="#aI"/><use transform="matrix(0.14814814814814817,0,0,0.14814814814814817,159.7037037037037,0)" xlink:href="#aM"/><use transform="matrix(0.14814814814814817,0,0,0.14814814814814817,189.33333333333331,0)" xlink:href="#aS"/><use transform="matrix(0.14814814814814817,0,0,0.14814814814814817,216,0)" xlink:href="#aI"/></g><g id="ar"><use transform="matrix(0.14814814814814817,0,0,0.14814814814814817,0,0)" xlink:href="#be"/><use transform="matrix(0.14814814814814817,0,0,0.14814814814814817,29.629629629629633,0)" xlink:href="#aX"/><use transform="matrix(0.14814814814814817,0,0,0.14814814814814817,56.296296296296305,0)" xlink:href="#aL"/><use transform="matrix(0.14814814814814817,0,0,0.14814814814814817,68.00000000000001,0)" xlink:href="#aM"/><use transform="matrix(0.14814814814814817,0,0,0.14814814814814817,97.62962962962965,0)" xlink:href="#bd"/></g><g id="as"><use transform="matrix(0.14814814814814817,0,0,0.14814814814814817,0,0)" xlink:href="#aX"/><use transform="matrix(0.14814814814814817,0,0,0.14814814814814817,26.66666666666667,0)" xlink:href="#aJ"/><use transform="matrix(0.14814814814814817,0,0,0.14814814814814817,56.296296296296305,0)" xlink:href="#bi"/><use transform="matrix(0.14814814814814817,0,0,0.14814814814814817,82.96296296296298,0)" xlink:href="#aI"/><use transform="matrix(0.14814814814814817,0,0,0.14814814814814817,112.59259259259261,0)" xlink:href="#aK"/></g><g id="at"><use transform="matrix(0.14814814814814817,0,0,0.14814814814814817,0,0)" xlink:href="#aT"/><use transform="matrix(0.14814814814814817,0,0,0.14814814814814817,38.370370370370374,0)" xlink:href="#aU"/></g><g id="au"><use transform="matrix(0.14814814814814817,0,0,0.14814814814814817,0,0)" xlink:href="#aL"/><use transform="matrix(0.14814814814814817,0,0,0.14814814814814817,11.703703703703706,0)" xlink:href="#aM"/><use transform="matrix(0.14814814814814817,0,0,0.14814814814814817,41.333333333333336,0)" xlink:href="#aK"/><use transform="matrix(0.14814814814814817,0,0,0.14814814814814817,70.96296296296298,0)" xlink:href="#aI"/><use transform="matrix(0.14814814814814817,0,0,0.14814814814814817,100.59259259259261,0)" xlink:href="#bb"/></g><g id="av"><use transform="matrix(0.14814814814814817,0,0,0.14814814814814817,0,0)" xlink:href="#aJ"/><use transform="matrix(0.14814814814814817,0,0,0.14814814814814817,29.629629629629633,0)" xlink:href="#aX"/></g><g id="aw"><use transform="matrix(0.14814814814814817,0,0,0.14814814814814817,0,0)" xlink:href="#aM"/><use transform="matrix(0.14814814814814817,0,0,0.14814814814814817,29.629629629629633,0)" xlink:href="#aI"/><use transform="matrix(0.14814814814814817,0,0,0.14814814814814817,59.25925925925927,0)" xlink:href="#bb"/><use transform="matrix(0.14814814814814817,0,0,0.14814814814814817,85.92592592592594,0)" xlink:href="#aP"/></g><g id="ax"><use transform="matrix(0.14814814814814817,0,0,0.14814814814814817,0,0)" xlink:href="#aX"/><use transform="matrix(0.14814814814814817,0,0,0.14814814814814817,26.66666666666667,0)" xlink:href="#aP"/><use transform="matrix(0.14814814814814817,0,0,0.14814814814814817,41.48148148148149,0)" xlink:href="#aJ"/><use transform="matrix(0.14814814814814817,0,0,0.14814814814814817,71.11111111111111,0)" xlink:href="#aR"/><use transform="matrix(0.14814814814814817,0,0,0.14814814814814817,88.74074074074075,0)" xlink:href="#aP"/></g><path d="M137-103V0h-34v-103L8-248h37l75 118 75-118h37" id="bC"/><g id="ay"><use transform="matrix(0.14814814814814817,0,0,0.14814814814814817,0,0)" xlink:href="#bC"/><use transform="matrix(0.14814814814814817,0,0,0.14814814814814817,30.666666666666668,0)" xlink:href="#aO"/><use transform="matrix(0.14814814814814817,0,0,0.14814814814814817,60.296296296296305,0)" xlink:href="#be"/></g><g id="az"><use transform="matrix(0.14814814814814817,0,0,0.14814814814814817,0,0)" xlink:href="#aJ"/><use transform="matrix(0.14814814814814817,0,0,0.14814814814814817,29.629629629629633,0)" xlink:href="#aR"/><use transform="matrix(0.14814814814814817,0,0,0.14814814814814817,47.25925925925927,0)" xlink:href="#aI"/></g><g id="aA"><use transform="matrix(0.14814814814814817,0,0,0.14814814814814817,0,0)" xlink:href="#bf"/><use transform="matrix(0.14814814814814817,0,0,0.14814814814814817,38.370370370370374,0)" xlink:href="#aO"/><use transform="matrix(0.14814814814814817,0,0,0.14814814814814817,68,0)" xlink:href="#aM"/><use transform="matrix(0.14814814814814817,0,0,0.14814814814814817,97.62962962962962,0)" xlink:href="#aI"/></g><g id="aB"><use transform="matrix(0.14814814814814817,0,0,0.14814814814814817,0,0)" xlink:href="#aT"/><use transform="matrix(0.14814814814814817,0,0,0.14814814814814817,38.370370370370374,0)" xlink:href="#aO"/><use transform="matrix(0.14814814814814817,0,0,0.14814814814814817,68,0)" xlink:href="#aZ"/><use transform="matrix(0.14814814814814817,0,0,0.14814814814814817,112.2962962962963,0)" xlink:href="#ba"/><use transform="matrix(0.14814814814814817,0,0,0.14814814814814817,141.92592592592592,0)" xlink:href="#be"/><use transform="matrix(0.14814814814814817,0,0,0.14814814814814817,171.55555555555554,0)" xlink:href="#aP"/><use transform="matrix(0.14814814814814817,0,0,0.14814814814814817,186.37037037037035,0)" xlink:href="#aI"/></g><path d="M185-189c-5-48-123-54-124 2 14 75 158 14 163 119 3 78-121 87-175 55-17-10-28-26-33-46l33-7c5 56 141 63 141-1 0-78-155-14-162-118-5-82 145-84 179-34 5 7 8 16 11 25" id="bD"/><g id="aC"><use transform="matrix(0.14814814814814817,0,0,0.14814814814814817,0,0)" xlink:href="#bD"/><use transform="matrix(0.14814814814814817,0,0,0.14814814814814817,35.55555555555556,0)" xlink:href="#aP"/><use transform="matrix(0.14814814814814817,0,0,0.14814814814814817,50.370370370370374,0)" xlink:href="#aJ"/><use transform="matrix(0.14814814814814817,0,0,0.14814814814814817,80,0)" xlink:href="#aP"/><use transform="matrix(0.14814814814814817,0,0,0.14814814814814817,94.81481481481481,0)" xlink:href="#aL"/><use transform="matrix(0.14814814814814817,0,0,0.14814814814814817,106.51851851851852,0)" xlink:href="#aX"/><use transform="matrix(0.14814814814814817,0,0,0.14814814814814817,133.1851851851852,0)" xlink:href="#aP"/><use transform="matrix(0.14814814814814817,0,0,0.14814814814814817,148,0)" xlink:href="#aL"/><use transform="matrix(0.14814814814814817,0,0,0.14814814814814817,159.7037037037037,0)" xlink:href="#aS"/></g><g id="aD"><use transform="matrix(0.14814814814814817,0,0,0.14814814814814817,0,0)" xlink:href="#ba"/><use transform="matrix(0.14814814814814817,0,0,0.14814814814814817,29.629629629629633,0)" xlink:href="#aI"/><use transform="matrix(0.14814814814814817,0,0,0.14814814814814817,59.25925925925927,0)" xlink:href="#aR"/></g><g id="aE"><use transform="matrix(0.14814814814814817,0,0,0.14814814814814817,0,0)" xlink:href="#aR"/><use transform="matrix(0.14814814814814817,0,0,0.14814814814814817,17.629629629629633,0)" xlink:href="#aI"/><use transform="matrix(0.14814814814814817,0,0,0.14814814814814817,47.25925925925927,0)" xlink:href="#bd"/><use transform="matrix(0.14814814814814817,0,0,0.14814814814814817,76.8888888888889,0)" xlink:href="#aL"/><use transform="matrix(0.14814814814814817,0,0,0.14814814814814817,88.59259259259261,0)" xlink:href="#aO"/><use transform="matrix(0.14814814814814817,0,0,0.14814814814814817,118.22222222222224,0)" xlink:href="#aM"/></g><g id="aF"><use transform="matrix(0.14814814814814817,0,0,0.14814814814814817,0,0)" xlink:href="#bD"/><use transform="matrix(0.14814814814814817,0,0,0.14814814814814817,35.55555555555556,0)" xlink:href="#aJ"/><use transform="matrix(0.14814814814814817,0,0,0.14814814814814817,65.18518518518519,0)" xlink:href="#bi"/><use transform="matrix(0.14814814814814817,0,0,0.14814814814814817,91.85185185185186,0)" xlink:href="#aI"/></g><g id="aG"><use transform="matrix(0.14814814814814817,0,0,0.14814814814814817,0,0)" xlink:href="#aW"/><use transform="matrix(0.14814814814814817,0,0,0.14814814814814817,11.703703703703706,0)" xlink:href="#aO"/><use transform="matrix(0.14814814814814817,0,0,0.14814814814814817,41.333333333333336,0)" xlink:href="#aS"/><use transform="matrix(0.14814814814814817,0,0,0.14814814814814817,68.00000000000001,0)" xlink:href="#aJ"/><use transform="matrix(0.14814814814814817,0,0,0.14814814814814817,97.62962962962965,0)" xlink:href="#aP"/><use transform="matrix(0.14814814814814817,0,0,0.14814814814814817,112.44444444444446,0)" xlink:href="#aL"/><use transform="matrix(0.14814814814814817,0,0,0.14814814814814817,124.14814814814817,0)" xlink:href="#aO"/><use transform="matrix(0.14814814814814817,0,0,0.14814814814814817,153.7777777777778,0)" xlink:href="#aM"/></g></defs></g></svg>